<?xml version="1.0" standalone="no"?>
<!DOCTYPE svg PUBLIC "-//W3C//DTD SVG 20010904//EN"
 "http://www.w3.org/TR/2001/REC-SVG-20010904/DTD/svg10.dtd">
<svg version="1.0" xmlns="http://www.w3.org/2000/svg"
 width="410.000000pt" height="410.000000pt" viewBox="0 0 410.000000 410.000000"
 preserveAspectRatio="xMidYMid meet">
<metadata>
Created by potrace 1.11, written by Peter Selinger 2001-2013
</metadata>
<g transform="translate(0.000000,410.000000) scale(0.100000,-0.100000)"
fill="#000000" stroke="none">
<path d="M2019 4082 c-26 -10 -53 -22 -60 -28 -24 -18 -192 -100 -234 -114
-22 -7 -51 -23 -65 -35 -14 -13 -36 -26 -50 -30 -14 -4 -43 -17 -65 -28 -22
-12 -60 -28 -85 -37 -37 -12 -49 -23 -67 -60 -33 -69 -18 -141 39 -181 48 -34
49 -38 13 -73 -49 -47 -78 -112 -78 -173 1 -78 52 -145 121 -159 32 -6 32 -7
27 -48 -4 -22 -14 -49 -22 -58 -9 -10 -17 -41 -19 -74 -2 -31 -8 -62 -15 -70
-8 -10 -8 -14 0 -14 15 0 14 -33 -1 -48 -16 -16 -43 -15 -58 3 -18 21 -30 19
-30 -6 0 -16 -4 -19 -17 -15 -9 4 -20 1 -24 -6 -6 -9 -13 -8 -28 7 -28 24 -36
14 -13 -16 26 -33 36 -67 23 -83 -8 -10 -5 -16 15 -24 14 -7 24 -15 22 -20 -2
-4 -9 -18 -15 -32 -5 -14 -18 -42 -27 -63 -9 -21 -16 -44 -16 -53 0 -8 -12
-19 -26 -24 -20 -8 -25 -15 -21 -31 4 -15 0 -23 -14 -26 -14 -4 -17 -11 -13
-29 4 -14 2 -24 -5 -24 -16 0 -9 -48 9 -56 8 -4 17 -8 20 -9 3 0 21 -8 40 -17
19 -8 51 -22 70 -29 19 -7 38 -17 42 -23 9 -13 -2 -37 -16 -35 -17 3 -66 -12
-66 -21 0 -4 -9 -17 -20 -30 -11 -13 -20 -29 -20 -36 0 -25 24 -65 36 -60 16
6 40 -22 48 -56 5 -21 0 -33 -19 -52 -14 -15 -34 -26 -45 -26 -51 0 -18 -39
54 -64 l34 -12 -22 -45 c-17 -33 -24 -69 -29 -139 -3 -52 -8 -102 -12 -111 -6
-16 11 -40 40 -57 8 -4 16 -20 17 -35 1 -15 8 -27 15 -27 7 0 13 -7 13 -15 0
-8 -4 -15 -10 -15 -5 0 -10 -7 -10 -15 0 -9 -10 -19 -22 -24 l-21 -8 21 -21
c12 -12 29 -23 37 -23 8 -1 23 -2 33 -3 11 0 26 -7 35 -14 8 -7 24 -12 34 -10
13 2 19 -4 21 -22 4 -24 3 -25 -12 -5 -15 19 -16 19 -30 2 -13 -16 -13 -24 0
-59 8 -22 14 -49 14 -59 0 -11 4 -19 8 -19 5 0 20 -21 35 -47 14 -27 47 -68
72 -92 36 -34 46 -50 42 -68 -3 -18 -1 -23 9 -19 8 3 14 1 14 -4 0 -5 9 -7 19
-5 25 5 40 -13 45 -56 3 -19 12 -61 20 -94 8 -33 17 -85 20 -115 3 -30 12 -89
22 -130 9 -41 22 -106 30 -145 7 -38 18 -92 24 -120 6 -27 13 -63 15 -80 7
-59 26 -169 31 -177 3 -4 113 -8 244 -8 l239 0 10 38 c6 20 12 48 15 62 3 14
26 108 51 210 25 102 47 197 50 213 2 15 13 62 24 105 37 145 52 207 57 237 3
17 9 44 14 60 6 17 16 62 24 100 16 79 18 90 41 177 15 61 55 118 81 118 7 0
14 5 16 10 2 6 14 12 28 15 30 6 60 43 52 64 -3 9 -1 12 6 7 15 -9 15 -1 0 24
-10 15 -9 22 5 38 22 25 22 42 -2 42 -12 0 -30 17 -48 45 -15 25 -31 45 -36
45 -4 0 -25 11 -46 25 -30 19 -38 29 -34 45 3 11 0 27 -7 35 -16 19 7 66 40
82 14 6 38 26 55 43 22 23 26 33 17 39 -10 6 -8 16 12 45 19 29 23 43 16 65
-4 15 -6 67 -5 116 3 79 5 90 25 100 20 11 20 13 5 19 -11 4 -15 12 -11 22 4
11 -7 29 -34 55 -39 38 -40 40 -26 67 20 39 31 102 17 102 -7 0 -10 20 -10 53
2 69 -32 151 -82 198 l-38 36 23 12 c46 25 67 121 27 121 -13 0 -21 -10 -25
-31 -3 -18 -10 -28 -16 -24 -8 5 -8 11 -1 19 7 9 7 16 0 23 -6 6 -11 32 -11
57 0 35 -4 49 -16 54 -27 10 -46 33 -50 61 -1 14 -9 43 -17 63 -13 34 -13 37
4 43 41 13 97 64 123 112 37 68 41 162 9 245 -5 13 -7 36 -4 51 5 26 -13 87
-26 87 -10 0 -52 42 -91 89 -79 98 -114 127 -163 137 -11 2 -25 10 -29 18 -12
22 -68 86 -120 138 -34 35 -58 50 -90 57 -65 13 -118 11 -169 -7z"/>
</g>
</svg>
