<svg aria-hidden="true" style="position: absolute; width: 0; height: 0; overflow: hidden;" version="1.1" xmlns="http://www.w3.org/2000/svg" xmlns:xlink="http://www.w3.org/1999/xlink">
<defs>
<symbol id="icon-home" viewBox="0 0 32 32">
<path fill="#d31342" style="fill: var(--color1, #d31342)" d="M31.618 15.643c0.553-0.608 0.5-1.541-0.119-2.082l-13.636-11.931c-0.619-0.541-1.611-0.53-2.217 0.026l-13.682 12.542c-0.606 0.556-0.636 1.487-0.066 2.079l0.343 0.357c0.569 0.592 1.489 0.663 2.053 0.157l1.023-0.916v13.406c0 0.823 0.666 1.488 1.488 1.488h5.333c0.822 0 1.488-0.666 1.488-1.488v-9.379h6.803v9.379c-0.012 0.822 0.576 1.488 1.398 1.488h5.652c0.822 0 1.488-0.666 1.488-1.488v-13.217c0 0 0.282 0.247 0.631 0.554s1.078 0.061 1.631-0.548l0.388-0.426z"></path>
</symbol>
<symbol id="icon-facebook" viewBox="0 0 32 32">
<path d="M16 32c8.837 0 16-7.163 16-16s-7.163-16-16-16c-8.837 0-16 7.163-16 16s7.163 16 16 16z"></path>
<path fill="#fff" d="M20.446 15.982h-2.61v9.619h-3.955v-9.619h-1.881v-3.38h1.881v-2.187c0-1.564 0.739-4.014 3.99-4.014l2.929 0.012v3.281h-2.125c-0.349 0-0.839 0.175-0.839 0.921v1.989h2.955l-0.346 3.377z"></path>
</symbol>
<symbol id="icon-telegram" viewBox="0 0 32 32">
<path d="M32 16c0 8.837-7.163 16-16 16s-16-7.163-16-16c0-8.837 7.163-16 16-16s16 7.163 16 16z"></path>
<path fill="#fff" d="M12.867 18.375l-0.318 4.169c0.454 0 0.651-0.182 0.887-0.401l2.13-1.9 4.415 3.017c0.81 0.421 1.38 0.199 1.599-0.695l2.898-12.672 0.001-0.001c0.257-1.117-0.433-1.554-1.222-1.28l-17.032 6.086c-1.162 0.421-1.145 1.026-0.198 1.3l4.355 1.264 10.115-5.907c0.476-0.294 0.909-0.131 0.553 0.163l-8.182 6.857z"></path>
</symbol>
<symbol id="icon-github" viewBox="0 0 32 32">
<path d="M32 16c0 8.837-7.163 16-16 16s-16-7.163-16-16c0-8.837 7.163-16 16-16s16 7.163 16 16z"></path>
<path fill="#fff"  d="M16 6.588c-5.169 0-9.412 4.242-9.412 9.412 0 4.411 3.095 8.419 7.206 9.412v-3.114c-0.407 0.089-0.782 0.092-1.197-0.030-0.556-0.164-1.008-0.535-1.344-1.1-0.214-0.361-0.593-0.752-0.988-0.723l-0.097-1.099c0.855-0.073 1.595 0.521 2.034 1.259 0.195 0.328 0.419 0.52 0.708 0.605 0.278 0.082 0.578 0.043 0.926-0.080 0.088-0.698 0.407-0.959 0.648-1.326v-0.001c-2.451-0.366-3.428-1.666-3.816-2.693-0.514-1.363-0.238-3.066 0.671-4.142 0.018-0.021 0.050-0.076 0.037-0.114-0.417-1.258 0.091-2.299 0.11-2.41 0.481 0.142 0.559-0.143 2.089 0.786l0.264 0.159c0.111 0.066 0.076 0.028 0.186 0.020 0.639-0.173 1.312-0.269 1.975-0.278 0.668 0.009 1.337 0.104 2.002 0.285l0.086 0.009c-0.007-0.001 0.023-0.005 0.075-0.036 1.911-1.157 1.842-0.779 2.355-0.946 0.019 0.111 0.519 1.169 0.107 2.411-0.056 0.171 1.657 1.739 0.708 4.256-0.388 1.027-1.365 2.328-3.816 2.693v0.001c0.314 0.479 0.692 0.734 0.69 1.722v3.887c4.111-0.993 7.206-5 7.206-9.412 0-5.169-4.242-9.412-9.412-9.412v0z"></path>
</symbol>
<symbol id="icon-arrow-right" viewBox="0 0 32 32">
<path d="M4 17.333h20.781l-7.057 7.057c-0.521 0.521-0.521 1.365 0 1.885s1.365 0.521 1.886 0l9.333-9.333c0.521-0.521 0.521-1.365 0-1.885l-9.333-9.333c-0.26-0.26-0.602-0.391-0.943-0.391s-0.682 0.13-0.943 0.391c-0.521 0.521-0.521 1.365 0 1.885l7.057 7.057h-20.781c-0.736 0-1.333 0.597-1.333 1.333s0.597 1.333 1.333 1.333z"></path>
</symbol>
<symbol id="icon-commas" viewBox="0 0 43 32">
<path fill="#e1e1e1" style="fill: var(--color1, #e1e1e1)" d="M32.014 0c1.929 0 3.75 0.52 5.464 1.561s3.107 2.537 4.179 4.488c1.029 1.951 1.543 4.249 1.543 6.894s-0.643 5.225-1.929 7.74c-0.429 0.911-1.2 2.081-2.314 3.512-1.157 1.431-2.229 2.667-3.214 3.707l-4.050 4.098-2.893-4.813c2.014-1.257 3.793-2.818 5.336-4.683 1.543-1.821 2.314-3.491 2.314-5.008 0-0.78-0.171-1.409-0.514-1.886-1.5 1.084-3.171 1.626-5.014 1.626-1.329 0-2.593-0.412-3.793-1.236-1.243-0.78-2.229-1.821-2.957-3.122-0.771-1.258-1.157-2.558-1.157-3.902 0-1.518 0.45-2.97 1.35-4.358 0.857-1.388 1.993-2.515 3.407-3.382 1.371-0.824 2.786-1.236 4.243-1.236zM8.936 0c1.929 0 3.75 0.52 5.464 1.561s3.107 2.537 4.179 4.488c1.029 1.951 1.543 4.249 1.543 6.894 0 1.864-0.236 3.534-0.707 5.008-0.471 1.518-1.286 3.1-2.443 4.748-1.114 1.561-2.164 2.862-3.15 3.902-0.986 1.084-2.7 2.884-5.143 5.398l-2.893-4.813c2.014-1.257 3.793-2.818 5.336-4.683 1.543-1.821 2.314-3.491 2.314-5.008 0-0.78-0.171-1.409-0.514-1.886-1.5 1.084-3.171 1.626-5.014 1.626-1.329 0-2.593-0.412-3.793-1.236-1.243-0.78-2.229-1.821-2.957-3.122-0.771-1.258-1.157-2.558-1.157-3.902 0-1.518 0.429-2.97 1.286-4.358s1.993-2.515 3.407-3.382c1.371-0.824 2.786-1.236 4.243-1.236z"></path>
</symbol>
<symbol id="icon-keyboard-right" viewBox="0 0 32 32">
<path d="M6.133 28l12.267-12-12.267-12.267 3.733-3.733 16 16-16 16z"></path>
</symbol>
<symbol id="icon-cake" viewBox="0 0 32 32">
<path d="M25.5 9c-0.295 0-0.58 0.037-0.857 0.097-0.123-1.821-1.624-3.264-3.476-3.264-0.415 0-0.808 0.085-1.177 0.218-1.15-1.828-3.172-3.051-5.49-3.051-3.522 0-6.373 2.807-6.48 6.303-0.469-0.193-0.981-0.303-1.52-0.303-2.209 0-4 1.791-4 4 0 2.152 1.703 3.894 3.833 3.982l1.604-1.604 1.622 1.622h0.758l1.621-1.622 1.621 1.622h0.758l1.621-1.622 1.621 1.622h0.758l1.621-1.622 1.621 1.622h0.758l1.621-1.622 1.616 1.616c2.183-0.029 3.946-1.803 3.946-3.994 0-2.209-1.791-4-4-4zM24 16.566l-1.434 1.434h-1.258l-1.371-1.371-1.371 1.371h-1.258l-1.371-1.371-1.371 1.371h-1.258l-1.371-1.371-1.371 1.371h-1.257l-1.371-1.371-1.372 1.371h-0.066l2.65 11h13.625l2.725-11h-0.066l-1.434-1.434zM11.5 28l-2.083-9h1l2.083 9h-1zM13.5 28l-1.062-9h1l1.062 9h-1zM16.5 28h-1v-9h1v9zM17.5 28l1.062-9h1l-1.062 9h-1zM20.5 28h-1l2.062-9h1l-2.062 9z"></path>
</symbol>
<symbol id="icon-icecream" viewBox="0 0 32 32">
<path d="M20.804 10.742c1.448-3.62-1.789-4.217-1.789-4.174 1.022-2.556-1.022-4.26-2.896-4.26s-1.789 0.853-1.789 0.853 1.022-0.213 1.022 0.596c0 0.81-0.938 0.767-1.874 1.704-0.938 0.937-0.49 0.81-0.554 0.81 1.948-0.128 3.088 1.885 5.239 1.149-2.13 1.065-2.641-0.628-4.941-0.713-0.298 0-2.002-0.33-2.002 2.928 2.492 0.288 3.578 2.002 6.943 1.619-3.791 1.405-8.54-4.409-9.2 1.959 0 1.363 1.021 2.048 1.021 2.048s11.799 0 11.757 0c2.342-1.022 1.193-4.732-0.937-4.519zM16.072 31l5.328-15.069h-10.773l5.445 15.069z"></path>
</symbol>
<symbol id="icon-icecream1" viewBox="0 0 24 24">
<path d="M6.844 12.984q-1.172-0.094-2.016-0.961t-0.844-2.039q0-1.078 0.727-1.922t1.805-1.031q0.188-2.109 1.758-3.563t3.727-1.453 3.727 1.453 1.758 3.563q1.078 0.188 1.805 1.031t0.727 1.922q0 1.172-0.82 2.039t-1.992 0.961l-5.156 10.031zM8.813 12.422l3.234 6.188 3.188-6.188q-0.047-0.047-0.164-0.141t-0.164-0.141q-1.359 0.844-2.906 0.844t-2.906-0.844q-0.047 0.047-0.094 0.117t-0.094 0.117-0.094 0.047z"></path>
</symbol>
<symbol id="icon-Burger" viewBox="0 0 46 32">
<path  stroke="#d41443" style="stroke: var(--color1, #d41443)" stroke-linejoin="miter" stroke-linecap="butt" stroke-miterlimit="4" stroke-width="2.2857" d="M0 2.286h45.714"></path>
<path  stroke="#d41443" style="stroke: var(--color1, #d41443)" stroke-linejoin="miter" stroke-linecap="butt" stroke-miterlimit="4" stroke-width="2.2857" d="M0 16h45.714"></path>
<path  stroke="#d41443" style="stroke: var(--color1, #d41443)" stroke-linejoin="miter" stroke-linecap="butt" stroke-miterlimit="4" stroke-width="2.2857" d="M0 29.714h45.714"></path>
</symbol>
<symbol id="icon-Vector" viewBox="0 0 32 32">
<path d="M32 3.223l-3.223-3.223-12.777 12.777-12.777-12.777-3.223 3.223 12.777 12.777-12.777 12.777 3.223 3.223 12.777-12.777 12.777 12.777 3.223-3.223-12.777-12.777 12.777-12.777z"></path>
</symbol>
<symbol id="icon-close" viewBox="0 0 32 32">
<path   style="stroke: var(--color1, #fff)" stroke-linejoin="miter" stroke-linecap="butt" stroke-miterlimit="4" stroke-width="2" d="M2.519 2l26.963 28"></path>
<path   style="stroke: var(--color1, #fff)" stroke-linejoin="miter" stroke-linecap="butt" stroke-miterlimit="4" stroke-width="2" d="M2 29.481l28-26.963"></path>
</symbol>
</defs>
</svg>
